<svg width="73" height="67" viewBox="0 0 73 67" fill="none" xmlns="http://www.w3.org/2000/svg">
<g clip-path="url(#clip0_40_0)" filter="url(#filter0_d_40_0)">
<path d="M55.845 16.3671C56.3404 15.8707 56.3404 15.0668 55.845 14.5719C55.3486 14.0755 54.5452 14.0755 54.0498 14.5719C53.5534 15.0668 53.5534 15.8707 54.0498 16.3671C54.5452 16.862 55.3486 16.862 55.845 16.3671Z" fill="#FCE505"/>
<path d="M20.5659 18.9959C21.0613 18.5009 21.0613 17.6971 20.5659 17.2007C20.0695 16.7057 19.2661 16.7057 18.7707 17.2007C18.2743 17.6971 18.2743 18.5009 18.7707 18.9959C19.2661 19.4923 20.0695 19.4923 20.5659 18.9959Z" fill="#FCE505"/>
<path d="M13.095 26.3061L16.8947 22.505C17.3906 22.009 17.3901 21.2057 16.8947 20.7098C16.3988 20.2138 15.5949 20.2143 15.099 20.7098L11.2993 24.5109C10.8039 25.0068 10.8039 25.8107 11.2998 26.3061C11.7952 26.802 12.5991 26.802 13.095 26.3061Z" fill="#FCE505"/>
<path d="M60.0329 22.6244C60.5288 23.1203 61.3327 23.1203 61.8286 22.6244C62.3245 22.129 62.3245 21.3251 61.8286 20.8292L59.296 18.2966C58.8001 17.8007 57.9962 17.8007 57.5003 18.2966C57.0049 18.792 57.0049 19.5959 57.5003 20.0918L60.0329 22.6244Z" fill="#FCE505"/>
<path d="M68.6281 21.2101L54.267 6.84656C53.782 6.36107 52.9985 6.34916 52.4991 6.82028C51.3838 7.87111 46.1415 12.8079 46.0656 12.8818C46.0612 12.8863 46.0562 12.8902 46.0517 12.8947C44.81 14.1364 43.5876 14.6899 42.0879 14.6899C39.0222 14.6899 36.6736 15.5557 34.7232 17.403C33.1239 15.8885 31.3113 15.1055 28.7817 14.8441L22.435 8.49695C21.9391 8.00104 21.1352 8.00104 20.6393 8.49695L4.37194 24.7648C3.88892 25.2473 3.87305 26.0269 4.34367 26.5293C4.35359 26.5397 4.36202 26.5501 4.37194 26.56C4.37194 26.56 14.9576 37.1293 14.9725 37.1437L14.5242 37.592C12.7885 39.3277 12.7875 42.1385 14.5247 43.8757C15.3469 44.6969 16.4766 45.1849 17.7124 45.1725C17.699 46.392 18.1702 47.5212 19.0132 48.3642C19.8696 49.2206 21.0142 49.6749 22.2009 49.6625C22.188 50.8809 22.6586 52.0096 23.5017 52.8527C24.3239 53.6739 25.4531 54.1619 26.6894 54.1495C26.676 55.3689 27.1471 56.4981 27.9902 57.3412C29.7224 59.0734 32.5407 59.0734 34.2734 57.3412L34.7227 56.8919L35.172 57.3412C36.9042 59.0734 39.7224 59.0734 41.4552 57.3412C42.2962 56.5001 42.7683 55.3729 42.7564 54.152C43.9689 54.1644 45.0986 53.6977 45.9441 52.8522C46.8219 51.9744 47.2543 50.8175 47.2424 49.6645C48.4733 49.6774 49.598 49.1983 50.4321 48.3642C51.2767 47.5202 51.7468 46.389 51.7329 45.1725C52.9127 45.1844 54.0597 44.7361 54.9211 43.8752C56.6573 42.139 56.6573 39.3287 54.9211 37.592L54.4733 37.1442C63.3248 28.3026 52.1276 39.5087 68.6281 23.0053C69.124 22.5094 69.124 21.706 68.6281 21.2101V21.2101ZM7.06523 25.6619L21.5374 11.1902L26.4147 16.0675L11.9455 30.5387L7.06523 25.6619ZM16.3194 42.08C15.5756 41.3362 15.5756 40.1316 16.3194 39.3872L20.8084 34.8982C21.5513 34.1559 22.7588 34.1564 23.5012 34.8982C24.2466 35.6441 24.2466 36.8467 23.5012 37.592L19.0137 42.0795C18.2708 42.8214 17.0618 42.8214 16.3194 42.08V42.08ZM20.8084 46.569C20.064 45.8241 20.0631 44.6201 20.8084 43.8752L25.2964 39.3872C26.0418 38.6424 27.2448 38.6419 27.9902 39.3872C28.7326 40.1296 28.7355 41.3347 27.9902 42.0795C27.9897 42.08 27.9897 42.08 27.9897 42.0805L23.5012 46.569C22.7588 47.3114 21.5508 47.3114 20.8084 46.569V46.569ZM25.2964 51.0565C24.5525 50.3131 24.5525 49.1081 25.2964 48.3642L29.7854 43.8752C30.5278 43.1328 31.7353 43.1328 32.4787 43.8762C33.2116 44.6077 33.2334 45.8127 32.4782 46.5685C32.4782 46.5685 32.4782 46.5685 32.4777 46.569L27.9907 51.056C27.2478 51.7984 26.0388 51.7984 25.2964 51.0565V51.0565ZM29.7854 55.546C29.041 54.8011 29.04 53.5971 29.7854 52.8522L34.2734 48.3642C35.0177 47.6198 36.2218 47.6188 36.9667 48.3642C37.716 49.1135 37.7051 50.3191 36.9667 51.057L32.4782 55.546C31.7353 56.2879 30.5278 56.2879 29.7854 55.546ZM39.6595 55.546C38.9176 56.2884 37.7095 56.2884 36.9672 55.546L36.5179 55.0967L38.7624 52.8522C38.9141 52.7004 39.051 52.5383 39.1779 52.3702L39.659 52.8517C39.6595 52.8517 39.6595 52.8517 39.66 52.8522L39.6605 52.8527C40.4048 53.5971 40.4048 54.8006 39.6595 55.546ZM53.1259 42.0795C52.383 42.8214 51.1745 42.8214 50.4321 42.0795L44.5972 36.2451C44.1013 35.7492 43.2975 35.7492 42.8015 36.2451C42.3061 36.7406 42.3061 37.5444 42.8015 38.0403L48.6369 43.8757C49.3813 44.6196 49.3818 45.8237 48.6364 46.569C47.8911 47.3144 46.6865 47.3114 45.9441 46.569L40.1093 40.7326C39.6138 40.2372 38.81 40.2372 38.3141 40.7326C37.8181 41.2285 37.8181 42.0324 38.3136 42.5283L44.1484 48.3642C44.8908 49.1066 44.8908 50.3146 44.1484 51.0565C43.7894 51.416 43.3108 51.6144 42.8015 51.6144C41.595 51.6144 41.2062 50.6642 40.0621 49.664C40.0507 48.4946 39.5905 47.3972 38.7629 46.5695C37.9208 45.7265 36.7931 45.2558 35.5746 45.2677C35.587 44.0473 35.1144 42.9196 34.2734 42.0795C33.3956 41.2018 32.2387 40.7698 31.0857 40.7817C31.111 38.2779 29.0832 36.2655 26.5977 36.2913C26.6101 35.0579 26.128 33.9347 25.2964 33.103C23.5642 31.3703 20.7454 31.3703 19.0132 33.103L16.7677 35.3485L13.7427 32.3324L28.6845 17.3881C30.5347 17.5994 31.7804 18.1315 32.9225 19.1932L29.3356 22.7797C27.3574 24.7594 27.3574 27.9808 29.3361 29.9615C31.3163 31.9401 34.5382 31.9406 36.5179 29.961L40.1093 26.3701C42.4301 28.6914 51.4339 37.6957 53.1254 39.3877C53.8678 40.1296 53.8678 41.3376 53.1259 42.0795V42.0795ZM52.6776 35.3485L41.9044 24.5749L42.802 23.6773C43.298 23.1814 43.298 22.3775 42.802 21.8816C42.3061 21.3862 41.5028 21.3862 41.0064 21.8816L34.7222 28.1663C33.7328 29.1556 32.1211 29.1556 31.1313 28.1663C30.1419 27.1759 30.1419 25.5647 31.1308 24.5749C32.433 23.2731 34.9999 20.7068 36.3007 19.4065C37.8062 17.9009 39.5915 17.2289 42.0879 17.2289C43.8836 17.2289 45.4338 16.6894 46.8864 15.5468L59.5276 28.5164C51.2643 36.7584 52.8953 35.1313 52.6776 35.3485ZM61.3233 26.7207L48.7599 13.831L53.3431 9.51307L65.9353 22.1077L61.3233 26.7207Z" fill="#FCE505"/>
</g>
<defs>
<filter id="filter0_d_40_0" x="0" y="0" width="73" height="73" filterUnits="userSpaceOnUse" color-interpolation-filters="sRGB">
<feFlood flood-opacity="0" result="BackgroundImageFix"/>
<feColorMatrix in="SourceAlpha" type="matrix" values="0 0 0 0 0 0 0 0 0 0 0 0 0 0 0 0 0 0 127 0" result="hardAlpha"/>
<feOffset dy="4"/>
<feGaussianBlur stdDeviation="2"/>
<feComposite in2="hardAlpha" operator="out"/>
<feColorMatrix type="matrix" values="0 0 0 0 0 0 0 0 0 0 0 0 0 0 0 0 0 0 0.25 0"/>
<feBlend mode="normal" in2="BackgroundImageFix" result="effect1_dropShadow_40_0"/>
<feBlend mode="normal" in="SourceGraphic" in2="effect1_dropShadow_40_0" result="shape"/>
</filter>
<clipPath id="clip0_40_0">
<rect width="65" height="65" fill="white" transform="translate(4)"/>
</clipPath>
</defs>
</svg>
